# Blender v3.2.0 OBJ File: 'Door.blend'
# www.blender.org
mtllib Door.mtl
o Cube
v -0.225914 6.475968 1.487082
v -0.225914 1.379117 1.342636
v -0.225915 6.475968 -1.487082
v -0.225915 1.379117 -1.342634
v 0.225915 6.475968 1.487082
v 0.225915 1.337415 1.324203
v 0.225914 6.475968 -1.487082
v 0.225914 1.337415 -1.324201
v 0.225915 -0.113569 1.979765
v 0.225914 -0.113569 -1.979765
v -0.225914 6.862911 1.979765
v -0.225914 -0.113569 1.979765
v 0.225914 6.862911 -1.979765
v -0.225915 6.862911 -1.979765
v -0.225915 -0.113569 -1.979765
v 0.225915 6.862911 1.979765
v -0.225915 0.274181 -1.342672
v -0.225914 0.274181 1.342682
v -0.225915 1.766867 -1.487082
v -0.225914 1.766867 1.487082
v -0.225915 -0.113569 -1.487133
v -0.225914 -0.113569 1.487145
v 0.225915 0.315883 1.323996
v 0.225914 0.315883 -1.323983
v 0.225915 1.766867 1.487082
v 0.225914 1.766867 -1.487082
v 0.225915 -0.113569 1.486784
v 0.225914 -0.113569 -1.486769
v 0.150956 1.766867 1.487081
v 0.150955 1.766867 -1.487081
v -0.150955 6.475968 1.487081
v -0.150955 1.766867 1.487081
v 0.150955 6.475968 -1.487081
v -0.150956 6.475968 -1.487081
v -0.150956 1.766867 -1.487081
v 0.150956 6.475968 1.487081
v -0.150956 1.379117 -1.342634
v -0.150955 1.379117 1.342635
v -0.150956 0.274181 -1.342672
v -0.150955 0.274181 1.342682
v 0.150956 1.337415 1.324203
v 0.150955 1.337415 -1.324201
v 0.150956 0.315883 1.323996
v 0.150955 0.315883 -1.323983
v 0.085145 3.462444 -1.979765
v 0.085146 3.334127 -1.979765
v -0.077300 3.334093 -1.979765
v -0.077299 3.462448 -1.979765
v 0.085145 3.462444 -1.923853
v 0.085146 3.334127 -1.923853
v -0.077300 3.334093 -1.923853
v -0.077299 3.462448 -1.923853
v -0.172414 3.467737 -1.678358
v -0.172414 3.315690 -1.678358
v -0.172414 3.467737 -1.830405
v -0.172414 3.315690 -1.830405
v -0.244356 3.467737 -1.678358
v -0.244356 3.315690 -1.678358
v -0.244356 3.467737 -1.830405
v -0.244356 3.315690 -1.830405
v -0.375936 3.315690 -1.830405
v -0.375936 3.467737 -1.830405
v -0.375936 3.467737 -1.678358
v -0.375936 3.315690 -1.678358
v -0.244356 3.315690 -1.127979
v -0.244356 3.467737 -1.127979
v -0.375936 3.315690 -1.127979
v -0.375936 3.467737 -1.127979
v 0.203298 3.315690 -1.678358
v 0.203298 3.467737 -1.678358
v 0.203298 3.315690 -1.830405
v 0.203298 3.467737 -1.830405
v 0.275240 3.315690 -1.678358
v 0.275240 3.467737 -1.678358
v 0.275240 3.315690 -1.830405
v 0.275240 3.467737 -1.830405
v 0.406820 3.467737 -1.830405
v 0.406820 3.315690 -1.830405
v 0.406820 3.315690 -1.678358
v 0.406820 3.467737 -1.678358
v 0.275240 3.467736 -1.127980
v 0.275240 3.315689 -1.127980
v 0.406820 3.467736 -1.127980
v 0.406820 3.315689 -1.127980
vt 0.379746 0.041405
vt 0.401361 0.041392
vt 0.401361 0.041392
vt 0.379746 0.041405
vt 0.125000 0.500000
vt 0.375000 0.500000
vt 0.375000 0.531103
vt 0.375000 0.718896
vt 0.375000 0.750000
vt 0.125000 0.750000
vt 0.125000 0.718873
vt 0.125000 0.531126
vt 0.401897 0.540228
vt 0.401897 0.709772
vt 0.401897 0.709772
vt 0.401897 0.540228
vt 0.406107 0.031107
vt 0.375000 0.031127
vt 0.375000 0.000000
vt 0.593893 0.531107
vt 0.406107 0.531107
vt 0.625000 0.500000
vt 0.593893 0.031107
vt 0.625000 0.000000
vt 0.406107 0.718893
vt 0.593893 0.718893
vt 0.625000 0.750000
vt 0.406107 0.218893
vt 0.593893 0.218893
vt 0.625000 0.250000
vt 0.375000 0.250000
vt 0.593893 0.718893
vt 0.593893 0.531107
vt 0.379211 0.709775
vt 0.379210 0.540225
vt 0.375000 0.218874
vt 0.379746 0.208596
vt 0.379746 0.208596
vt 0.401361 0.208609
vt 0.406107 0.031107
vt 0.593893 0.031107
vt 0.593893 0.218893
vt 0.406107 0.218893
vt 0.406107 0.531107
vt 0.406107 0.718893
vt 0.379210 0.540225
vt 0.379211 0.709775
vt 0.401361 0.208609
vt 0.457009 0.627921
vt 0.411430 0.495014
vt 0.462943 0.623917
vt 0.462943 0.623917
vt 0.457009 0.627921
vt 0.419386 0.484942
vt 0.411430 0.495014
vt 0.419386 0.484942
vt 0.375000 0.000000
vt 0.625000 0.000000
vt 0.625000 0.250000
vt 0.375000 0.250000
vt 0.625000 0.500000
vt 0.375000 0.500000
vt 0.375000 0.750000
vt 0.375000 0.750000
vt 0.375000 0.750000
vt 0.375000 0.750000
vt 0.625000 0.750000
vt 0.625000 1.000000
vt 0.375000 1.000000
vt 0.125000 0.500000
vt 0.125000 0.750000
vt 0.875000 0.500000
vt 0.875000 0.750000
vt 0.375000 0.500000
vt 0.625000 0.500000
vt 0.625000 0.750000
vt 0.625000 0.750000
vt 0.625000 0.750000
vt 0.375000 0.000000
vt 0.625000 0.000000
vt 0.625000 0.250000
vt 0.375000 0.250000
vt 0.625000 0.500000
vt 0.375000 0.500000
vt 0.375000 0.750000
vt 0.375000 0.750000
vt 0.375000 0.750000
vt 0.375000 0.750000
vt 0.625000 0.750000
vt 0.625000 1.000000
vt 0.375000 1.000000
vt 0.125000 0.500000
vt 0.125000 0.750000
vt 0.875000 0.500000
vt 0.875000 0.750000
vt 0.375000 0.500000
vt 0.625000 0.500000
vt 0.625000 0.750000
vt 0.625000 0.750000
vt 0.625000 0.750000
vn 0.0000 0.0002 1.0000
vn 0.0000 -1.0000 -0.0000
vn 1.0000 0.0000 -0.0000
vn -1.0000 0.0000 0.0000
vn 0.0000 1.0000 0.0000
vn 0.0000 -0.0000 1.0000
vn -0.0000 -0.0000 -1.0000
vn 0.0000 0.0002 -1.0000
vn -0.0002 1.0000 0.0000
usemtl Material
s off
f 24/1/1 8/2/1 42/3/1 44/4/1
f 9/5/2 12/6/2 22/7/2 21/8/2 15/9/2 10/10/2 28/11/2 27/12/2
f 2/13/2 4/14/2 37/15/2 38/16/2
f 26/17/3 28/18/3 10/19/3
f 1/20/4 20/21/4 12/6/4 11/22/4
f 7/23/3 26/17/3 10/19/3 13/24/3
f 19/25/4 3/26/4 14/27/4 15/9/4
f 25/28/3 5/29/3 16/30/3 9/31/3
f 3/26/4 1/20/4 11/22/4 14/27/4
f 5/29/3 7/23/3 13/24/3 16/30/3
f 20/21/4 22/7/4 12/6/4
f 21/8/4 19/25/4 15/9/4
f 1/20/2 3/26/2 34/32/2 31/33/2
f 4/14/4 2/13/4 20/21/4 19/25/4
f 17/34/4 4/14/4 19/25/4 21/8/4
f 18/35/4 17/34/4 21/8/4 22/7/4
f 2/13/4 18/35/4 22/7/4 20/21/4
f 27/36/3 25/28/3 9/31/3
f 23/37/5 24/1/5 44/4/5 43/38/5
f 6/39/3 8/2/3 26/17/3 25/28/3
f 23/37/3 6/39/3 25/28/3 27/36/3
f 24/1/3 23/37/3 27/36/3 28/18/3
f 8/2/3 24/1/3 28/18/3 26/17/3
f 30/40/3 33/41/3 36/42/3 29/43/3
f 32/44/4 31/33/4 34/32/4 35/45/4
f 40/46/4 38/16/4 37/15/4 39/47/4
f 44/4/3 42/3/3 41/48/3 43/38/3
f 7/23/2 5/29/2 36/42/2 33/41/2
f 4/14/6 17/34/6 39/47/6 37/15/6
f 19/25/5 20/21/5 32/44/5 35/45/5
f 17/34/5 18/35/5 40/46/5 39/47/5
f 25/28/5 26/17/5 30/40/5 29/43/5
f 18/35/7 2/13/7 38/16/7 40/46/7
f 20/21/7 1/20/7 31/33/7 32/44/7
f 26/17/6 7/23/6 33/41/6 30/40/6
f 8/2/2 6/39/2 41/48/2 42/3/2
f 3/26/6 19/25/6 35/45/6 34/32/6
f 6/39/8 23/37/8 43/38/8 41/48/8
f 5/29/7 25/28/7 29/43/7 36/42/7
f 11/22/5 16/30/5 13/24/5 14/27/5
f 9/31/6 16/30/6 11/22/6 12/6/6
f 10/10/7 15/9/7 47/49/7 46/50/7
f 47/49/3 48/51/3 52/52/3 51/53/3
f 45/54/7 48/51/7 14/27/7 13/24/7
f 50/55/7 51/53/7 52/52/7 49/56/7
f 13/24/7 10/10/7 46/50/7 45/54/7
f 14/27/7 48/51/7 47/49/7 15/9/7
f 45/54/4 46/50/4 50/55/4 49/56/4
f 48/51/2 45/54/2 49/56/2 52/52/2
f 46/50/9 47/49/9 51/53/9 50/55/9
f 53/57/3 54/58/3 56/59/3 55/60/3
f 55/60/7 56/59/7 60/61/7 59/62/7
f 57/63/5 63/64/5 68/65/5 66/66/5
f 57/63/6 58/67/6 54/68/6 53/69/6
f 55/70/5 59/62/5 57/63/5 53/71/5
f 60/61/2 56/72/2 54/73/2 58/67/2
f 62/74/4 61/75/4 64/76/4 63/64/4
f 57/63/5 59/62/5 62/74/5 63/64/5
f 60/61/2 58/67/2 64/76/2 61/75/2
f 59/62/7 60/61/7 61/75/7 62/74/7
f 65/77/6 66/66/6 68/65/6 67/78/6
f 64/76/2 58/67/2 65/77/2 67/78/2
f 63/64/4 64/76/4 67/78/4 68/65/4
f 58/67/3 57/63/3 66/66/3 65/77/3
f 69/79/4 70/80/4 72/81/4 71/82/4
f 71/82/7 72/81/7 76/83/7 75/84/7
f 73/85/2 79/86/2 84/87/2 82/88/2
f 73/85/6 74/89/6 70/90/6 69/91/6
f 71/92/2 75/84/2 73/85/2 69/93/2
f 76/83/5 72/94/5 70/95/5 74/89/5
f 78/96/3 77/97/3 80/98/3 79/86/3
f 73/85/2 75/84/2 78/96/2 79/86/2
f 76/83/5 74/89/5 80/98/5 77/97/5
f 75/84/7 76/83/7 77/97/7 78/96/7
f 81/99/6 82/88/6 84/87/6 83/100/6
f 80/98/5 74/89/5 81/99/5 83/100/5
f 79/86/3 80/98/3 83/100/3 84/87/3
f 74/89/4 73/85/4 82/88/4 81/99/4
