# Blender v3.2.0 OBJ File: 'Door.blend'
# www.blender.org
mtllib DoorFrame.mtl
o Cube.001
v 0.225915 -0.113569 -0.000780
v 0.225914 -0.113569 -3.960310
v -0.225914 6.862911 -0.000780
v -0.225914 -0.113569 -0.000780
v 0.225914 6.862911 -3.960310
v -0.225915 6.862911 -3.960310
v -0.225915 -0.113569 -3.960310
v 0.225915 6.862911 -0.000780
v -0.216960 -0.091134 0.464127
v 0.217115 -0.091134 0.464127
v -0.216960 7.211745 0.372304
v 0.217114 -0.091134 -4.317088
v 0.217114 7.211745 -4.225266
v -0.216961 7.211745 -4.225266
v -0.216961 -0.091134 -4.317088
v 0.217115 7.211745 0.372304
v 0.081877 3.341386 -4.301001
v -0.074185 3.341383 -4.301001
vt 0.375000 0.250000
vt 0.625000 0.250000
vt 0.625000 0.250000
vt 0.375000 0.250000
vt 0.375000 0.750000
vt 0.625000 0.750000
vt 0.625000 0.750000
vt 0.375000 0.750000
vt 0.625000 0.000000
vt 0.375000 0.000000
vt 0.375000 0.000000
vt 0.625000 0.000000
vt 0.625000 0.500000
vt 0.375000 0.500000
vt 0.375000 0.500000
vt 0.625000 0.500000
vt 0.125000 0.750000
vt 0.457009 0.627921
vt 0.411430 0.495014
vt 0.419386 0.484942
vt 0.462943 0.623917
vt 0.125000 0.750000
vt 0.125000 0.500000
vt 0.125000 0.500000
vn 0.9998 0.0001 0.0209
vn -0.9996 0.0002 -0.0287
vn 0.9996 0.0002 -0.0282
vn -0.9998 0.0001 0.0213
vn 0.0000 1.0000 0.0000
vn 0.0000 0.0126 0.9999
vn -0.0000 0.0047 -1.0000
vn -0.0000 0.0196 -0.9998
vn 0.1963 0.0123 -0.9805
vn -0.1863 0.0124 -0.9824
vn -0.9997 0.0257 0.0000
vn -0.0000 -0.9980 -0.0628
vn 0.9997 0.0252 -0.0000
vn 0.0000 -0.9988 0.0482
vn -0.0000 0.0000 -1.0000
vn 0.0000 -1.0000 0.0000
vn 0.0000 0.0000 1.0000
usemtl Material
s off
f 1/1/1 8/2/1 16/3/1 10/4/1
f 7/5/2 6/6/2 14/7/2 15/8/2
f 5/9/3 2/10/3 12/11/3 13/12/3
f 3/13/4 4/14/4 9/15/4 11/16/4
f 11/16/5 16/3/5 13/12/5 14/7/5
f 10/4/6 16/3/6 11/16/6 9/15/6
f 12/17/7 15/8/7 18/18/7 17/19/7
f 17/20/8 18/21/8 14/7/8 13/12/8
f 13/12/9 12/17/9 17/20/9
f 14/7/10 18/18/10 15/8/10
f 6/6/11 3/13/11 11/16/11 14/7/11
f 2/22/12 7/5/12 15/8/12 12/17/12
f 8/2/13 5/9/13 13/12/13 16/3/13
f 4/14/14 1/23/14 10/24/14 9/15/14
f 1/1/15 4/14/15 3/13/15 8/2/15
f 3/13/16 6/6/16 5/9/16 8/2/16
f 2/22/17 5/9/17 6/6/17 7/5/17
