# Blender v3.2.0 OBJ File: 'Door.blend'
# www.blender.org
mtllib DoorFrameWithText.mtl
o Cube.002
v 0.279561 -0.113569 7.043879
v 0.270725 6.862911 7.043880
v 0.268787 7.211745 7.510511
v 0.284106 -0.110912 7.508786
v -0.273641 -0.113568 3.084349
v -0.264805 6.862912 3.084350
v -0.262679 7.211745 2.679135
v -0.282100 -0.114025 2.651032
v 0.270724 6.862912 3.084350
v 0.279560 -0.113568 3.084349
v 0.288207 -0.114025 2.651032
v 0.268786 7.211745 2.679135
v -0.264804 6.862911 7.043880
v -0.273640 -0.113569 7.043879
v -0.277996 -0.110912 7.508786
v -0.262677 7.211745 7.510511
v -0.087869 3.341384 2.671754
v 0.103207 3.341387 2.671754
vt 0.375000 0.250000
vt 0.625000 0.250000
vt 0.625000 0.250000
vt 0.375000 0.250000
vt 0.375000 0.750000
vt 0.625000 0.750000
vt 0.625000 0.750000
vt 0.375000 0.750000
vt 0.625000 0.000000
vt 0.375000 0.000000
vt 0.375000 0.000000
vt 0.625000 0.000000
vt 0.625000 0.500000
vt 0.375000 0.500000
vt 0.375000 0.500000
vt 0.625000 0.500000
vt 0.125000 0.750000
vt 0.457009 0.627921
vt 0.411430 0.495014
vt 0.419386 0.484942
vt 0.462943 0.623917
vt 0.125000 0.750000
vt 0.125000 0.500000
vt 0.125000 0.500000
vn 1.0000 0.0017 -0.0034
vn -1.0000 0.0020 0.0084
vn 1.0000 0.0020 0.0088
vn -1.0000 0.0017 -0.0030
vn 0.0000 1.0000 0.0000
vn 0.0000 -0.0002 1.0000
vn -0.0000 0.0060 -1.0000
vn 0.0000 0.0019 -1.0000
vn -0.0424 0.0037 -0.9991
vn 0.0403 0.0037 -0.9992
vn -1.0000 0.0061 0.0000
vn 0.0000 -1.0000 0.0011
vn 1.0000 0.0056 -0.0000
vn 0.0000 -1.0000 0.0057
vn 0.0000 0.0000 -1.0000
vn 0.0000 -1.0000 -0.0000
vn 0.0000 -0.0000 1.0000
usemtl Material.007
s 1
f 1/1/1 2/2/1 3/3/1 4/4/1
f 5/5/2 6/6/2 7/7/2 8/8/2
f 9/9/3 10/10/3 11/11/3 12/12/3
f 13/13/4 14/14/4 15/15/4 16/16/4
f 16/16/5 3/3/5 12/12/5 7/7/5
f 4/4/6 3/3/6 16/16/6 15/15/6
f 11/17/7 8/8/7 17/18/7 18/19/7
f 18/20/8 17/21/8 7/7/8 12/12/8
f 12/12/9 11/17/9 18/20/9
f 7/7/10 17/18/10 8/8/10
f 6/6/11 13/13/11 16/16/11 7/7/11
f 10/22/12 5/5/12 8/8/12 11/17/12
f 2/2/13 9/9/13 12/12/13 3/3/13
f 14/14/14 1/23/14 4/24/14 15/15/14
f 1/1/15 14/14/15 13/13/15 2/2/15
f 13/13/16 6/6/16 9/9/16 2/2/16
f 10/22/17 9/9/17 6/6/17 5/5/17
